<svg
						xmlns="http://www.w3.org/2000/svg"
						width="100%"
						height="100%"
						viewBox="0 0 50 50"
						fill="none"
					>
						<path
							d="M49.4101 10.3502C48.2766 15.1441 45.2401 21.6818 38.0329 29.7811L37.2855 37.307C37.0854 39.1107 36.2783 40.7925 34.9971 42.0757L27.5523 49.5318C27.0665 50.0183 26.3245 50.1389 25.71 49.8312C25.0956 49.5235 24.7466 48.8566 24.8438 48.1755L25.6903 42.2409C25.8153 41.3648 25.6473 40.3871 25.2777 39.2528C25.0405 38.525 24.7782 37.8818 24.5002 37.2002C24.4161 36.9942 24.3307 36.7846 24.244 36.5682C21.6964 35.9521 19.313 34.4986 17.3955 32.5781C15.4775 30.6572 14.026 28.2696 13.4111 25.7176C13.1937 25.6304 12.9834 25.5445 12.7766 25.46C12.0977 25.1826 11.457 24.9207 10.7309 24.6836C9.59811 24.3137 8.62194 24.1455 7.74729 24.2706L1.82172 25.1184C1.14166 25.2157 0.475763 24.8663 0.168545 24.2509C-0.138674 23.6355 -0.018275 22.8923 0.467481 22.4058L7.91227 14.9497C9.19355 13.6665 10.8728 12.8582 12.6737 12.6578L12.6927 12.6558L20.1931 11.9119C28.1398 4.84681 34.6467 1.81913 39.4478 0.649517C42.2308 -0.0284454 44.4174 -0.0759637 45.9473 0.0633298C46.7108 0.132846 47.3069 0.248528 47.7282 0.35336C47.9388 0.405755 48.1056 0.455389 48.2276 0.4951C48.8046 0.682856 49.0991 0.902741 49.3253 1.41451L49.3269 1.41798C49.359 1.49164 49.3881 1.56695 49.4155 1.64249C49.4595 1.76364 49.5145 1.92862 49.5731 2.13684C49.6902 2.55348 49.8212 3.14218 49.9068 3.89766C50.0784 5.41199 50.0656 7.57777 49.4101 10.3502ZM34.3235 33.7083L34.4476 33.5838L34.1121 36.9626C33.9904 38.0415 33.5067 39.0473 32.74 39.8152L28.6808 43.8806L28.8502 42.693C29.0759 41.1105 28.744 39.5863 28.3122 38.2611C28.164 37.8064 27.9849 37.3255 27.7995 36.8511C30.1053 36.6491 32.3696 35.6651 34.3235 33.7083ZM16.2669 15.6244C14.3133 17.5809 13.3309 19.8484 13.129 22.1576C12.6548 21.9719 12.1743 21.7925 11.7204 21.6443C10.3974 21.2122 8.87566 20.8799 7.29588 21.1059L6.11014 21.2756L10.1693 17.2102C10.936 16.4424 11.9402 15.9579 13.0175 15.836L16.3897 15.5016L16.2669 15.6244ZM45.6583 3.24703C44.4726 3.13908 42.6388 3.1622 40.2023 3.75577C35.3331 4.94197 27.9634 8.43114 18.524 17.8849C16.5878 19.824 16.0283 22.0742 16.3794 24.294C16.7134 26.405 17.8887 28.5511 19.6525 30.3176C21.4159 32.0836 23.558 33.2606 25.6653 33.5954C27.8823 33.9477 30.1297 33.3874 32.0664 31.4478C41.6873 21.8123 45.1643 14.4341 46.304 9.61362C46.874 7.20284 46.8656 5.40834 46.7352 4.2582C46.6952 3.90481 46.6434 3.61043 46.5926 3.37593C46.3455 3.32864 46.0335 3.28119 45.6583 3.24703Z"
							fill="url(#paint0_linear_104_43)"
						/>
						<path
							d="M21.9027 37.9337C19.8825 36.8644 17.9587 35.4027 16.2669 33.7084C14.4716 31.9103 12.9378 29.8505 11.8564 27.6912C8.41288 30.7907 5.71541 43.4852 6.11016 43.8806C6.50133 44.2723 18.4078 41.0796 21.9027 37.9337Z"
							fill="url(#paint1_linear_104_43)"
						/>
						<path
							d="M28.4647 15.4442C28.1097 18.5493 30.3391 21.3542 33.4441 21.7092C33.6659 21.7346 33.8252 21.9349 33.7998 22.1567C33.7745 22.3785 33.5741 22.5377 33.3523 22.5124C29.8037 22.1067 27.2558 18.901 27.6615 15.3524C27.6868 15.1306 27.8872 14.9714 28.109 14.9967C28.3308 15.0221 28.49 15.2224 28.4647 15.4442ZM30.8742 15.7197C30.6713 17.494 31.9453 19.0968 33.7196 19.2997C33.9414 19.325 34.1006 19.5254 34.0753 19.7472C34.0499 19.969 33.8496 20.1282 33.6278 20.1029C31.4099 19.8493 29.8175 17.8458 30.071 15.6279C30.0964 15.4061 30.2967 15.2468 30.5185 15.2722C30.7403 15.2975 30.8995 15.4979 30.8742 15.7197ZM34.0985 12.4268C34.1239 12.205 34.3242 12.0457 34.546 12.0711C36.7639 12.3246 38.3564 14.3282 38.1028 16.5461C38.0774 16.7679 37.8771 16.9271 37.6553 16.9018C37.4335 16.8764 37.2743 16.6761 37.2996 16.4543C37.5025 14.6799 36.2285 13.0771 34.4542 12.8743C34.2324 12.8489 34.0732 12.6485 34.0985 12.4268ZM34.374 10.0172C34.3993 9.79543 34.5997 9.63619 34.8215 9.66155C38.3702 10.0672 40.918 13.2729 40.5123 16.8216C40.487 17.0433 40.2866 17.2026 40.0648 17.1772C39.843 17.1519 39.6838 16.9515 39.7091 16.7297C40.0641 13.6246 37.8347 10.8197 34.7297 10.4647C34.5079 10.4394 34.3486 10.239 34.374 10.0172Z"
							fill="url(#paint2_linear_104_43)"
						/>
						<path
							d="M35.3526 15.0809C35.9082 15.78 35.792 16.7971 35.0929 17.3527C34.3939 17.9083 33.3768 17.792 32.8212 17.093C32.2656 16.3939 32.3819 15.3768 33.0809 14.8212C33.78 14.2656 34.797 14.3819 35.3526 15.0809Z"
							fill="url(#paint3_linear_104_43)"
						/>
						<defs>
							<linearGradient
								id="paint0_linear_104_43"
								x1="9.5"
								y1="-1.1763e-06"
								x2="50"
								y2="40"
								gradientUnits="userSpaceOnUse"
							>
								<stop stop-color="#C088F3" />
								<stop offset="1" stop-color="#F38888" />
							</linearGradient>
							<linearGradient
								id="paint1_linear_104_43"
								x1="9.5"
								y1="-1.1763e-06"
								x2="50"
								y2="40"
								gradientUnits="userSpaceOnUse"
							>
								<stop stop-color="#C088F3" />
								<stop offset="1" stop-color="#F38888" />
							</linearGradient>
							<linearGradient
								id="paint2_linear_104_43"
								x1="9.5"
								y1="-1.1763e-06"
								x2="50"
								y2="40"
								gradientUnits="userSpaceOnUse"
							>
								<stop stop-color="#C088F3" />
								<stop offset="1" stop-color="#F38888" />
							</linearGradient>
							<linearGradient
								id="paint3_linear_104_43"
								x1="9.5"
								y1="-1.1763e-06"
								x2="50"
								y2="40"
								gradientUnits="userSpaceOnUse"
							>
								<stop stop-color="#C088F3" />
								<stop offset="1" stop-color="#F38888" />
							</linearGradient>
						</defs>
					</svg>